Coordinates
version=1
nRows=23
nColumns=33
inDegrees=yes

Units are S.I. units (second, meters, Newtons, ...)
Angles are in degrees.

endheader
time	ground_thorax_rot_x	ground_thorax_rot_y	ground_thorax_rot_z	ground_thorax_tx	ground_thorax_ty	ground_thorax_tz	clav_prot_r	clav_elev_r	scapula_abduction_r	scapula_elevation_r	scapula_upward_rot_r	scapula_winging_r	shoulder_elv_r	plane_of_elev_r	axial_rot_r	elbow_flexion_r	pro_sup_r	wrist_flex_r	wrist_dev_r	clav_prot_l	clav_elev_l	scapula_abduction_l	scapula_elevation_l	scapula_upward_rot_l	scapula_winging_l	shoulder_elv_l	plane_of_elev_l	axial_rot_l	elbow_flexion_l	pro_sup_l	wrist_flex_l	wrist_dev_l	
2.2200	-40.975573	-2.361515	-0.972649	-42.483113	796.626186	5.547114	5.191411	-45.000000	45.000000	-45.000000	-6.832467	-1884.036360	-1011.967106	32.364318	36.869863	9.529131	29.701666	17.047042	12.818491	14.061986	45.009785	-45.000000	-43.640311	-11.891387	2236.771454	-3531.815242	31.117922	25.476155	0.646466	43.807387	10.140013	-20.074383	
2.2300	-41.017702	-2.331887	-1.047129	-43.509059	797.063085	5.715047	5.116695	-45.000000	45.000000	-45.000000	-6.799736	-1884.280129	-1011.884760	32.473138	36.729504	9.577973	29.180609	17.153217	12.741318	13.839159	44.992995	-45.000000	-43.768940	-11.747723	2237.014698	-3531.813146	31.143725	25.369164	0.855142	43.242485	10.227671	-20.183600	
2.2400	-41.054083	-2.302709	-1.106536	-44.614280	797.510445	5.880323	5.045689	-45.000000	45.000000	-45.000000	-6.799848	-1884.536444	-1011.788043	32.591454	36.588836	9.617873	28.679161	17.277064	12.660607	13.612185	44.990091	-45.000000	-43.904722	-11.633637	2237.247739	-3531.817458	31.171827	25.220032	1.046169	42.694682	10.315406	-20.292943	
2.2500	-41.091424	-2.275610	-1.155796	-45.889548	797.972629	6.041602	4.986109	-45.000000	45.000000	-45.000000	-6.782618	-1884.782380	-1011.666893	32.666111	36.398166	9.673594	28.229898	17.372824	12.590369	13.472162	44.988051	-45.000000	-44.050692	-11.579355	2237.458487	-3531.803108	31.175157	24.965695	1.266862	42.203387	10.375324	-20.401221	
2.2600	-41.129570	-2.258941	-1.184971	-47.348863	798.457880	6.195921	4.937293	-45.000000	45.000000	-45.000000	-6.778423	-1885.033577	-1011.528158	32.717648	36.192798	9.741467	27.831134	17.463997	12.523085	13.383822	44.988740	-45.000000	-44.202475	-11.586055	2237.660359	-3531.780005	31.159521	24.606222	1.510995	41.756497	10.414123	-20.511154	
2.2700	-41.169097	-2.257854	-1.187926	-49.019010	798.974530	6.339806	4.898532	-45.000000	45.000000	-45.000000	-6.794366	-1885.295888	-1011.373555	32.749425	35.991701	9.821451	27.486180	17.556119	12.456935	13.341051	44.991019	-45.000000	-44.355302	-11.650716	2237.862883	-3531.751865	31.123322	24.136019	1.778005	41.350703	10.432707	-20.624045	
2.2800	-41.209666	-2.275080	-1.160393	-50.906285	799.530726	6.469309	4.871393	-45.000000	45.000000	-45.000000	-6.841383	-1885.577835	-1011.205532	32.770735	35.820327	9.913986	27.186642	17.656121	12.386122	13.331390	44.992184	-45.000000	-44.504544	-11.781878	2238.070857	-3531.716445	31.071700	23.565481	2.069654	40.968386	10.432457	-20.738306	
2.2900	-41.254745	-2.317381	-1.096983	-53.007772	800.133250	6.580420	4.852018	-45.000000	45.000000	-45.000000	-6.928825	-1885.883862	-1011.032680	32.789724	35.704528	10.013704	26.923194	17.770989	12.309738	13.337206	44.989246	-44.999999	-44.643914	-11.961576	2238.300643	-3531.678560	31.006312	22.915836	2.373194	40.593413	10.420895	-20.854564	
2.3000	-41.300452	-2.383681	-0.999380	-55.320381	800.786680	6.669394	4.843182	-45.000000	45.000000	-45.000000	-7.051031	-1886.214789	-1010.852580	32.805911	35.649743	10.121835	26.683526	17.893538	12.224026	13.361887	44.984840	-44.999999	-44.764922	-12.201039	2238.548354	-3531.628044	30.929159	22.205318	2.693756	40.210753	10.395216	-20.968267	
2.3100	-41.344749	-2.477812	-0.863044	-57.840080	801.493718	6.732804	4.845120	-45.000000	45.000000	-45.000000	-7.212899	-1886.568892	-1010.662303	32.819615	35.659175	10.231543	26.458461	18.020851	12.130936	13.402718	44.981473	-44.999998	-44.861228	-12.489036	2238.818102	-3531.568151	30.840719	21.452267	3.014524	39.812008	10.360608	-21.077482	
2.3200	-41.384145	-2.598448	-0.689780	-60.561377	802.255477	6.767239	4.862270	-45.000000	45.000000	-45.000000	-7.416455	-1886.944777	-1010.459705	32.829381	35.720883	10.339909	26.237549	18.146930	12.027675	13.462431	44.982891	-44.999996	-44.930383	-12.840004	2239.100288	-3531.492447	30.743099	20.671822	3.337588	39.387150	10.314697	-21.178471	
2.3300	-41.422529	-2.750728	-0.477780	-63.477597	803.071251	6.769979	4.893056	-45.000000	44.999999	-45.000000	-7.665267	-1887.337960	-1010.249721	32.833872	35.829063	10.440130	26.018068	18.270065	11.918885	13.536431	44.984721	-44.999993	-44.973604	-13.236514	2239.403023	-3531.408261	30.634311	19.878558	3.650439	38.933457	10.262430	-21.272320	
2.3400	-41.458369	-2.930301	-0.232271	-66.581894	803.938525	6.739571	4.941801	-45.000000	44.999999	-45.000000	-7.960513	-1887.746862	-1010.032712	32.832116	35.960389	10.531869	25.795716	18.385522	11.800533	13.631459	44.989984	-44.999988	-44.994079	-13.698599	2239.713339	-3531.305050	30.517606	19.095775	3.959566	38.443769	10.199822	-21.356019	
2.3500	-41.493601	-3.138776	0.051937	-69.868433	804.852372	6.677472	5.007488	-45.000000	44.999998	-45.000000	-8.308579	-1888.167189	-1009.806772	32.823199	36.113841	10.610305	25.573541	18.492054	11.675488	13.747862	44.993868	-44.999979	-45.000000	-14.224428	2240.029120	-3531.186249	30.394836	18.341126	4.251556	37.918485	10.132022	-21.430375	
2.3600	-41.528083	-3.396029	0.401212	-73.332510	805.805676	6.587787	5.113260	-45.000000	44.999996	-45.000000	-8.760377	-1888.596948	-1009.563721	32.807678	36.271116	10.680123	25.345166	18.583705	11.538269	13.919229	44.996219	-44.999962	-45.000000	-14.886624	2240.328005	-3531.027151	30.269081	17.638860	4.527968	37.339253	10.055454	-21.485906	
2.3700	-41.566306	-3.680863	0.790550	-76.971480	806.789271	6.477679	5.235581	-45.000000	44.999993	-45.000000	-9.276832	-1889.030195	-1009.312300	32.784388	36.447893	10.736055	25.118280	18.663932	11.389580	14.115277	44.993202	-44.999932	-45.000000	-15.613273	2240.624873	-3530.851745	30.138319	16.998264	4.770798	36.721745	9.981917	-21.533028	
2.3800	-41.606583	-3.979853	1.203098	-80.783585	807.792994	6.355082	5.370792	-45.000000	44.999987	-45.000000	-9.842109	-1889.472107	-1009.054582	32.758609	36.652555	10.786121	24.896291	18.731709	11.223259	14.325797	44.987894	-44.999878	-45.000000	-16.391735	2240.920439	-3530.661473	30.007653	16.415485	4.984499	36.080802	9.911007	-21.573852	
2.3900	-41.648075	-4.285174	1.628997	-84.767887	808.806665	6.227359	5.513320	-45.000000	44.999977	-45.000000	-10.444782	-1889.924193	-1008.792289	32.734269	36.912136	10.835259	24.685956	18.789279	11.040345	14.538621	44.978118	-44.999781	-45.000000	-17.199187	2241.224864	-3530.471749	29.877202	15.865447	5.174244	35.438695	9.844183	-21.614326	
2.4000	-41.692125	-4.583304	2.051170	-88.921130	809.821226	6.098259	5.655314	-45.000000	44.999959	-45.000000	-11.070015	-1890.391268	-1008.532472	32.717472	37.218869	10.888283	24.489314	18.838169	10.841014	14.738074	44.961351	-44.999608	-45.000000	-18.014150	2241.544521	-3530.288020	29.750073	15.325958	5.346562	34.808394	9.782826	-21.658965	
2.4100	-41.739000	-4.849718	2.441446	-93.238348	810.828926	5.968252	5.776373	-45.000000	44.999927	-45.000000	-11.666238	-1890.870039	-1008.285978	32.704430	37.574276	10.940749	24.318272	18.882077	10.632124	14.896868	44.929241	-44.999298	-45.000000	-18.781424	2241.887614	-3530.129584	29.620159	14.762912	5.509773	34.215260	9.725779	-21.713852	
2.4200	-41.785067	-5.088317	2.807462	-97.710665	811.822931	5.834669	5.883758	-45.000000	44.999870	-45.000000	-12.246478	-1891.364921	-1008.050543	32.694485	37.957118	10.998878	24.179741	18.922387	10.419748	15.022754	44.877512	-44.998743	-45.000000	-19.529093	2242.246190	-3529.990960	29.486687	14.151694	5.673445	33.661976	9.667091	-21.774840	
2.4300	-41.830958	-5.322994	3.185192	-102.326882	812.796865	5.693806	6.004421	-45.000000	44.999766	-45.000000	-12.868517	-1891.873726	-1007.821026	32.691919	38.349051	11.055421	24.076831	18.956239	10.212278	15.155638	44.781414	-44.997747	-45.000000	-20.333542	2242.607328	-3529.849864	29.352870	13.476378	5.851535	33.129750	9.598052	-21.830701	
2.4400	-41.869112	-5.587771	3.617925	-107.071776	813.744365	5.541808	6.170631	-45.000000	44.999581	-45.000000	-13.613301	-1892.396879	-1007.581646	32.702503	38.719580	11.114913	24.008347	18.985049	10.018883	15.338884	44.637013	-44.995968	-45.000000	-21.294344	2242.952834	-3529.684614	29.226356	12.743289	6.042467	32.578398	9.515153	-21.869353	
